<svg xmlns="http://www.w3.org/2000/svg" viewBox="0 0 200 200" width="200" height="200">
  <g transform="translate(100, 100)">
    <g fill="#0A0A0A" stroke="none">
      <circle cx="70" cy="0" r="3"/>
      <circle cx="49.5" cy="-49.5" r="3"/>
      <circle cx="0" cy="-70" r="3"/>
      <circle cx="-49.5" cy="-49.5" r="3"/>
      <circle cx="-70" cy="0" r="3"/>
      <circle cx="-49.5" cy="49.5" r="3"/>
      <circle cx="0" cy="70" r="3"/>
      <circle cx="49.5" cy="49.5" r="3"/>
    </g>
    <g stroke="#0A0A0A" stroke-width="0.75" fill="none" opacity="0.55">
      <line x1="70" y1="0" x2="14" y2="0"/>
      <line x1="49.5" y1="-49.5" x2="9.9" y2="-9.9"/>
      <line x1="0" y1="-70" x2="0" y2="-14"/>
      <line x1="-49.5" y1="-49.5" x2="-9.9" y2="-9.9"/>
      <line x1="-70" y1="0" x2="-14" y2="0"/>
      <line x1="-49.5" y1="49.5" x2="-9.9" y2="9.9"/>
      <line x1="0" y1="70" x2="0" y2="14"/>
      <line x1="49.5" y1="49.5" x2="9.9" y2="9.9"/>
    </g>
    <circle cx="0" cy="0" r="11" fill="none" stroke="#0A0A0A" stroke-width="1.25"/>
    <circle cx="0" cy="0" r="4" fill="#0A0A0A"/>
  </g>
</svg>
